<?xml version="1.0" standalone="no"?>
<!DOCTYPE svg PUBLIC "-//W3C//DTD SVG 20010904//EN"
        "http://www.w3.org/TR/2001/REC-SVG-20010904/DTD/svg10.dtd">
<svg version="1.0" xmlns="http://www.w3.org/2000/svg"
     width="202.000000pt" height="202.000000pt" viewBox="0 0 202.000000 202.000000"
     preserveAspectRatio="xMidYMid meet">
    <metadata>
        Created by potrace 1.14, written by Peter Selinger 2001-2017
    </metadata>
    <g transform="translate(0.000000,202.000000) scale(0.100000,-0.100000)"
       fill="#000000" stroke="none">
        <path d="M640 1963 l0 -53 -53 0 -54 0 1 -210 c0 -232 -6 -214 69 -210 21 1
37 -2 36 -7 -1 -4 -1 -30 0 -56 1 -46 2 -48 29 -47 76 5 78 4 76 -47 -1 -27
-2 -50 -3 -54 0 -3 -22 -5 -48 -4 l-48 0 -3 53 c-3 56 -1 54 -74 54 l-36 0 2
41 c1 23 1 47 -2 54 -3 9 -59 12 -213 12 l-209 0 0 -54 0 -54 -44 1 c-24 0
-48 -2 -52 -5 -5 -3 -9 -49 -8 -104 l0 -98 52 -3 51 -3 3 -52 3 -52 250 -1
c138 -1 256 -2 263 -3 8 -1 12 -18 12 -51 l0 -50 -265 0 -265 0 0 -55 0 -56
-46 4 c-34 2 -47 -1 -52 -12 -6 -13 -8 -106 -3 -183 1 -15 10 -18 50 -18 l50
0 3 -52 3 -53 203 0 c226 0 220 -2 215 68 l-2 37 54 0 55 0 0 -49 c0 -54 -5
-58 -66 -56 l-42 2 1 -214 1 -213 53 0 53 0 0 -50 0 -50 105 0 105 0 0 49 0
50 53 3 52 3 0 260 1 260 52 3 52 3 1 -43 c0 -24 0 -143 1 -265 l1 -223 54 0
55 0 -2 -33 c-4 -71 -10 -67 105 -67 l105 0 0 50 0 50 49 0 c39 0 51 4 54 18
3 9 4 105 3 212 l-1 196 210 -1 210 0 3 53 3 52 50 0 49 0 1 38 c2 132 0 165
-11 172 -6 4 -29 5 -51 3 l-39 -4 0 56 0 55 -265 0 -265 0 0 53 0 52 265 0
265 0 0 53 0 52 50 0 50 0 1 68 c0 37 1 84 2 105 2 40 -3 42 -75 37 -27 -1
-28 0 -28 53 l0 55 -206 0 c-113 1 -209 4 -212 7 -4 3 -6 98 -6 211 l0 204
-53 0 -53 0 0 50 c0 28 -3 50 -7 51 -5 0 -52 2 -106 2 l-97 2 0 -52 0 -53 -54
0 -53 0 -1 -242 c0 -134 -1 -253 -1 -265 -1 -20 -6 -23 -51 -22 -44 1 -50 4
-51 23 -1 11 -2 129 -3 261 l-1 240 -52 3 -52 3 -3 52 -3 51 -103 1 -102 0 0
-52z m846 -526 l-2 -52 -52 -3 -52 -3 0 -52 0 -52 -43 0 c-23 0 -47 3 -53 7
-5 4 -10 28 -9 54 l1 48 52 -3 52 -2 0 55 0 55 54 0 55 0 -3 -52z m-323 -166
c4 0 7 -23 7 -51 l0 -50 49 0 c30 0 50 -5 53 -12 3 -11 3 -255 -1 -295 -1 -9
-18 -13 -51 -13 l-50 0 0 -50 c0 -41 -3 -50 -17 -51 -54 -3 -280 -4 -290 -1
-8 3 -13 23 -13 53 0 32 -4 49 -12 50 -7 1 -31 2 -53 3 l-40 1 0 155 0 155 53
3 52 3 0 48 c0 26 2 50 5 52 3 4 283 4 308 0z m-422 -530 c1 -3 2 -27 3 -53
l2 -48 -53 0 -53 0 0 53 0 53 50 0 c28 1 51 -2 51 -5z m639 -47 l0 -54 53 0
53 0 -1 -42 c-1 -58 -7 -64 -57 -63 l-43 0 -3 53 -3 52 -53 0 -52 0 2 48 c0
26 2 49 3 52 0 3 24 6 51 6 l50 1 0 -53z"/>
    </g>
</svg>
