<svg xmlns="http://www.w3.org/2000/svg" height="65" width="100%" preserveAspectRatio="none">
    <defs>
        <path id="f0"
              d="M0 28.4774H3.16279V31.6274H0V28.4774ZM0 31.6274H3.16279V34.7774H0V31.6274ZM3.16279 28.4774H6.32558V31.6274H3.16279V28.4774ZM3.16279 31.6274H6.32558V34.7774H3.16279V31.6274ZM3.16279 34.7774H6.32558V37.9274H3.16279V34.7774ZM6.32558 28.4774H9.48837V31.6274H6.32558V28.4774ZM6.32558 31.6274H9.48837V34.7774H6.32558V31.6274ZM6.32558 34.7774H9.48837V37.9274H6.32558V34.7774ZM6.32558 37.9274H9.48837V41.0774H6.32558V37.9274ZM9.48837 28.4774H12.6512V31.6274H9.48837V28.4774ZM9.48837 31.6274H12.6512V34.7774H9.48837V31.6274ZM9.48837 34.7774H12.6512V37.9274H9.48837V34.7774ZM9.48837 37.9274H12.6512V41.0774H9.48837V37.9274ZM12.6512 0.127441H15.814V3.27744H12.6512V0.127441ZM12.6512 3.27744H15.814V6.42744H12.6512V3.27744ZM12.6512 12.7274H15.814V15.8774H12.6512V12.7274ZM12.6512 15.8774H15.814V19.0274H12.6512V15.8774ZM12.6512 31.6274H15.814V34.7774H12.6512V31.6274ZM12.6512 34.7774H15.814V37.9274H12.6512V34.7774ZM12.6512 37.9274H15.814V41.0774H12.6512V37.9274ZM12.6512 53.6774H15.814V56.8274H12.6512V53.6774ZM12.6512 56.8274H15.814V59.9774H12.6512V56.8274ZM15.814 0.127441H18.9767V3.27744H15.814V0.127441ZM15.814 3.27744H18.9767V6.42744H15.814V3.27744ZM15.814 12.7274H18.9767V15.8774H15.814V12.7274ZM15.814 15.8774H18.9767V19.0274H15.814V15.8774ZM15.814 34.7774H18.9767V37.9274H15.814V34.7774ZM15.814 37.9274H18.9767V41.0774H15.814V37.9274ZM15.814 53.6774H18.9767V56.8274H15.814V53.6774ZM15.814 56.8274H18.9767V59.9774H15.814V56.8274ZM18.9767 6.42744H22.1395V9.57744H18.9767V6.42744ZM18.9767 9.57744H22.1395V12.7274H18.9767V9.57744ZM18.9767 12.7274H22.1395V15.8774H18.9767V12.7274ZM18.9767 15.8774H22.1395V19.0274H18.9767V15.8774ZM18.9767 19.0274H22.1395V22.1774H18.9767V19.0274ZM18.9767 22.1774H22.1395V25.3274H18.9767V22.1774ZM18.9767 41.0774H22.1395V44.2274H18.9767V41.0774ZM18.9767 44.2274H22.1395V47.3774H18.9767V44.2274ZM18.9767 53.6774H22.1395V56.8274H18.9767V53.6774ZM18.9767 56.8274H22.1395V59.9774H18.9767V56.8274ZM22.1395 6.42744H25.3023V9.57744H22.1395V6.42744ZM22.1395 9.57744H25.3023V12.7274H22.1395V9.57744ZM22.1395 12.7274H25.3023V15.8774H22.1395V12.7274ZM22.1395 15.8774H25.3023V19.0274H22.1395V15.8774ZM22.1395 19.0274H25.3023V22.1774H22.1395V19.0274ZM22.1395 22.1774H25.3023V25.3274H22.1395V22.1774ZM22.1395 41.0774H25.3023V44.2274H22.1395V41.0774ZM22.1395 44.2274H25.3023V47.3774H22.1395V44.2274ZM22.1395 53.6774H25.3023V56.8274H22.1395V53.6774ZM22.1395 56.8274H25.3023V59.9774H22.1395V56.8274ZM25.3023 0.127441H28.4651V3.27744H25.3023V0.127441ZM25.3023 3.27744H28.4651V6.42744H25.3023V3.27744ZM25.3023 6.42744H28.4651V9.57744H25.3023V6.42744ZM25.3023 9.57744H28.4651V12.7274H25.3023V9.57744ZM25.3023 19.0274H28.4651V22.1774H25.3023V19.0274ZM25.3023 22.1774H28.4651V25.3274H25.3023V22.1774ZM25.3023 25.3274H28.4651V28.4774H25.3023V25.3274ZM25.3023 28.4774H28.4651V31.6274H25.3023V28.4774ZM25.3023 31.6274H28.4651V34.7774H25.3023V31.6274ZM25.3023 34.7774H28.4651V37.9274H25.3023V34.7774ZM25.3023 37.9274H28.4651V41.0774H25.3023V37.9274ZM25.3023 41.0774H28.4651V44.2274H25.3023V41.0774ZM25.3023 44.2274H28.4651V47.3774H25.3023V44.2274ZM25.3023 47.3774H28.4651V50.5274H25.3023V47.3774ZM25.3023 50.5274H28.4651V53.6774H25.3023V50.5274ZM25.3023 53.6774H28.4651V56.8274H25.3023V53.6774ZM25.3023 56.8274H28.4651V59.9774H25.3023V56.8274ZM28.4651 0.127441H31.6279V3.27744H28.4651V0.127441ZM28.4651 3.27744H31.6279V6.42744H28.4651V3.27744ZM28.4651 6.42744H31.6279V9.57744H28.4651V6.42744ZM28.4651 9.57744H31.6279V12.7274H28.4651V9.57744ZM28.4651 19.0274H31.6279V22.1774H28.4651V19.0274ZM28.4651 22.1774H31.6279V25.3274H28.4651V22.1774ZM28.4651 25.3274H31.6279V28.4774H28.4651V25.3274ZM28.4651 28.4774H31.6279V31.6274H28.4651V28.4774ZM28.4651 31.6274H31.6279V34.7774H28.4651V31.6274ZM28.4651 34.7774H31.6279V37.9274H28.4651V34.7774ZM28.4651 37.9274H31.6279V41.0774H28.4651V37.9274ZM28.4651 41.0774H31.6279V44.2274H28.4651V41.0774ZM28.4651 44.2274H31.6279V47.3774H28.4651V44.2274ZM28.4651 47.3774H31.6279V50.5274H28.4651V47.3774ZM28.4651 50.5274H31.6279V53.6774H28.4651V50.5274ZM28.4651 53.6774H31.6279V56.8274H28.4651V53.6774ZM28.4651 56.8274H31.6279V59.9774H28.4651V56.8274ZM31.6279 6.42744H34.7907V9.57744H31.6279V6.42744ZM31.6279 9.57744H34.7907V12.7274H31.6279V9.57744ZM31.6279 12.7274H34.7907V15.8774H31.6279V12.7274ZM31.6279 15.8774H34.7907V19.0274H31.6279V15.8774ZM31.6279 19.0274H34.7907V22.1774H31.6279V19.0274ZM31.6279 22.1774H34.7907V25.3274H31.6279V22.1774ZM31.6279 41.0774H34.7907V44.2274H31.6279V41.0774ZM31.6279 44.2274H34.7907V47.3774H31.6279V44.2274ZM31.6279 53.6774H34.7907V56.8274H31.6279V53.6774ZM31.6279 56.8274H34.7907V59.9774H31.6279V56.8274ZM34.7907 6.42744H37.9535V9.57744H34.7907V6.42744ZM34.7907 9.57744H37.9535V12.7274H34.7907V9.57744ZM34.7907 12.7274H37.9535V15.8774H34.7907V12.7274ZM34.7907 15.8774H37.9535V19.0274H34.7907V15.8774ZM34.7907 19.0274H37.9535V22.1774H34.7907V19.0274ZM34.7907 22.1774H37.9535V25.3274H34.7907V22.1774ZM34.7907 41.0774H37.9535V44.2274H34.7907V41.0774ZM34.7907 44.2274H37.9535V47.3774H34.7907V44.2274ZM34.7907 53.6774H37.9535V56.8274H34.7907V53.6774ZM34.7907 56.8274H37.9535V59.9774H34.7907V56.8274ZM37.9535 0.127441H41.1163V3.27744H37.9535V0.127441ZM37.9535 3.27744H41.1163V6.42744H37.9535V3.27744ZM37.9535 12.7274H41.1163V15.8774H37.9535V12.7274ZM37.9535 15.8774H41.1163V19.0274H37.9535V15.8774ZM37.9535 34.7774H41.1163V37.9274H37.9535V34.7774ZM37.9535 37.9274H41.1163V41.0774H37.9535V37.9274ZM37.9535 53.6774H41.1163V56.8274H37.9535V53.6774ZM37.9535 56.8274H41.1163V59.9774H37.9535V56.8274ZM41.1163 0.127441H44.2791V3.27744H41.1163V0.127441ZM41.1163 3.27744H44.2791V6.42744H41.1163V3.27744ZM41.1163 12.7274H44.2791V15.8774H41.1163V12.7274ZM41.1163 15.8774H44.2791V19.0274H41.1163V15.8774ZM41.1163 31.6274H44.2791V34.7774H41.1163V31.6274ZM41.1163 34.7774H44.2791V37.9274H41.1163V34.7774ZM41.1163 37.9274H44.2791V41.0774H41.1163V37.9274ZM41.1163 53.6774H44.2791V56.8274H41.1163V53.6774ZM41.1163 56.8274H44.2791V59.9774H41.1163V56.8274ZM44.2791 28.4774H47.4419V31.6274H44.2791V28.4774ZM44.2791 31.6274H47.4419V34.7774H44.2791V31.6274ZM44.2791 34.7774H47.4419V37.9274H44.2791V34.7774ZM44.2791 37.9274H47.4419V41.0774H44.2791V37.9274ZM47.4419 28.4774H50.6047V31.6274H47.4419V28.4774ZM47.4419 31.6274H50.6047V34.7774H47.4419V31.6274ZM47.4419 34.7774H50.6047V37.9274H47.4419V34.7774ZM47.4419 37.9274H50.6047V41.0774H47.4419V37.9274ZM50.6047 28.4774H53.7674V31.6274H50.6047V28.4774ZM50.6047 31.6274H53.7674V34.7774H50.6047V31.6274ZM50.6047 34.7774H53.7674V37.9274H50.6047V34.7774ZM53.7674 28.4774H56.9302V31.6274H53.7674V28.4774ZM53.7674 31.6274H56.9302V34.7774H53.7674V31.6274Z"/>
        <g id="row" fill="#EBFF00" fill-opacity="0.15">
            <use href="#f0" x="0" y="1"/>
            <use href="#f0" x="75" y="-1"/>
            <use href="#f0" x="145" y="-1"/>
            <use href="#f0" x="210" y="-1"/>
        </g>
        <g id="repeated">
            <use href="#row" x="0" y="0"/>
            <use href="#row" x="265" y="0"/>
            <use href="#row" x="530" y="0"/>
            <use href="#row" x="790" y="0"/>
            <use href="#row" x="1055" y="0"/>
            <use href="#row" x="1320" y="0"/>
            <use href="#row" x="1585" y="0"/>
            <use href="#row" x="1850" y="0"/>
            <use href="#row" x="2115" y="0"/>
            <use href="#row" x="2380" y="0"/>
        </g>
    </defs>
    <rect x="0" y="0" width="100%" height="65" fill="#1C1C1D"/>
    <use href="#repeated" x="0" y="0"/>
    <use href="#repeated" x="2655" y="0"/>
    <use href="#repeated" x="5310" y="0"/>
</svg>
